<svg xmlns="http://www.w3.org/2000/svg" viewBox="0 0 1140 360"><path fill="#1D4380" d="M0 0h1140v360H0V0z"/><path fill="#fff" d="M191.061 117h-3.751V95.393c0-1.707.104-3.796.314-6.267h-.09c-.359 1.453-.682 2.493-.966 3.122L175.563 117h-1.842l-10.983-24.572c-.314-.719-.637-1.819-.966-3.302h-.09c.12 1.288.18 3.392.18 6.312V117h-3.639V84.791h4.986l9.883 22.461c.764 1.722 1.258 3.01 1.482 3.863h.135c.644-1.767 1.16-3.084 1.55-3.953l10.085-22.371h4.717V117zm9.032-28.84a2.335 2.335 0 0 1-1.685-.674c-.464-.449-.696-1.018-.696-1.707 0-.688.232-1.261.696-1.718a2.311 2.311 0 0 1 1.685-.685 2.38 2.38 0 0 1 1.718.685c.472.457.708 1.03.708 1.718 0 .659-.236 1.221-.708 1.685a2.359 2.359 0 0 1-1.718.696zM201.89 117h-3.684V94h3.684v23zm22.307-1.056c-1.767 1.063-3.863 1.595-6.289 1.595-3.279 0-5.926-1.067-7.94-3.201-2.014-2.134-3.021-4.9-3.021-8.299 0-3.788 1.085-6.832 3.257-9.13 2.171-2.298 5.068-3.448 8.692-3.448 2.021 0 3.803.375 5.346 1.123v3.773c-1.707-1.198-3.534-1.797-5.48-1.797-2.351 0-4.279.842-5.784 2.527s-2.257 3.897-2.257 6.637c0 2.695.708 4.822 2.123 6.379 1.415 1.558 3.313 2.336 5.694 2.336 2.006 0 3.893-.666 5.66-1.999v3.504zm16.736-18.215c-.644-.494-1.572-.741-2.785-.741-1.572 0-2.886.741-3.942 2.224s-1.583 3.504-1.583 6.064V117h-3.684V94h3.684v4.739h.09c.524-1.617 1.325-2.878 2.403-3.785 1.078-.906 2.283-1.359 3.616-1.359.958 0 1.692.105 2.201.314v3.82zm12.783 19.81c-3.399 0-6.113-1.074-8.142-3.223-2.029-2.148-3.043-4.998-3.043-8.546 0-3.863 1.056-6.88 3.167-9.052 2.111-2.171 4.964-3.257 8.558-3.257 3.429 0 6.105 1.056 8.03 3.167 1.924 2.111 2.886 5.039 2.886 8.782 0 3.669-1.037 6.607-3.111 8.816-2.075 2.209-4.856 3.313-8.345 3.313zm.27-20.978c-2.366 0-4.238.805-5.615 2.415-1.378 1.61-2.066 3.83-2.066 6.66 0 2.726.696 4.874 2.089 6.446s3.257 2.358 5.593 2.358c2.381 0 4.211-.771 5.492-2.313 1.28-1.542 1.92-3.736 1.92-6.581 0-2.875-.64-5.091-1.92-6.648-1.282-1.559-3.112-2.337-5.493-2.337zm14.849 19.608v-3.953c2.006 1.482 4.215 2.224 6.626 2.224 3.234 0 4.852-1.078 4.852-3.234 0-.614-.139-1.134-.416-1.561a4.126 4.126 0 0 0-1.123-1.134 8.686 8.686 0 0 0-1.662-.887c-.637-.262-1.322-.535-2.055-.82a26.263 26.263 0 0 1-2.684-1.224c-.771-.412-1.415-.876-1.932-1.393s-.906-1.104-1.168-1.763c-.262-.659-.393-1.43-.393-2.313 0-1.078.247-2.033.741-2.864s1.153-1.527 1.977-2.089c.823-.562 1.763-.984 2.819-1.269a12.527 12.527 0 0 1 3.268-.427c1.991 0 3.773.345 5.346 1.033v3.729c-1.692-1.108-3.639-1.662-5.84-1.662-.689 0-1.311.079-1.864.236a4.539 4.539 0 0 0-1.426.663 3.061 3.061 0 0 0-.921 1.022 2.695 2.695 0 0 0-.326 1.314c0 .599.108 1.101.326 1.505.217.404.535.764.955 1.078.419.314.928.599 1.527.854.599.255 1.28.532 2.044.831 1.018.39 1.932.79 2.74 1.202.809.412 1.497.876 2.066 1.393a5.446 5.446 0 0 1 1.314 1.786c.307.674.46 1.475.46 2.403 0 1.138-.251 2.126-.752 2.965a6.453 6.453 0 0 1-2.01 2.089c-.839.554-1.805.966-2.897 1.235-1.093.27-2.239.404-3.437.404-2.366-.003-4.418-.46-6.155-1.373zm29.697 1.37c-3.399 0-6.113-1.074-8.142-3.223-2.029-2.148-3.043-4.998-3.043-8.546 0-3.863 1.056-6.88 3.167-9.052 2.111-2.171 4.964-3.257 8.558-3.257 3.429 0 6.105 1.056 8.03 3.167 1.924 2.111 2.886 5.039 2.886 8.782 0 3.669-1.037 6.607-3.111 8.816-2.075 2.209-4.856 3.313-8.345 3.313zm.27-20.978c-2.366 0-4.238.805-5.615 2.415-1.378 1.61-2.066 3.83-2.066 6.66 0 2.726.696 4.874 2.089 6.446s3.257 2.358 5.593 2.358c2.381 0 4.211-.771 5.492-2.313 1.28-1.542 1.92-3.736 1.92-6.581 0-2.875-.64-5.091-1.92-6.648-1.282-1.559-3.112-2.337-5.493-2.337zm27.607-10.377c-.719-.404-1.535-.606-2.448-.606-2.576 0-3.863 1.625-3.863 4.874V94h5.391v3.145h-5.391V117h-3.661V97.145h-3.931V94h3.931v-3.729c0-2.411.696-4.316 2.089-5.716 1.393-1.4 3.129-2.1 5.211-2.1 1.123 0 2.014.135 2.673.404v3.325zm12.873 30.591c-.869.479-2.014.719-3.437.719-4.028 0-6.042-2.246-6.042-6.738V97.145h-3.953V94h3.953v-5.615l3.684-1.19V94h5.795v3.145h-5.795v12.96c0 1.542.262 2.643.786 3.302.524.659 1.393.988 2.605.988.928 0 1.729-.254 2.403-.764v3.144zm41.29.225h-4.178l-3.414-9.029h-13.656L356.112 117h-4.2l12.354-32.209h3.908L380.572 117zm-8.827-12.421l-5.054-13.724c-.165-.449-.33-1.168-.494-2.156h-.09c-.15.914-.322 1.632-.517 2.156l-5.009 13.724h11.164zm28.281-9.523l-13.611 18.8h13.477V117h-18.89v-1.146l13.611-18.71h-12.331V94h17.744v1.056zM422.557 117h-3.684v-3.639h-.09c-1.527 2.785-3.894 4.178-7.098 4.178-5.48 0-8.221-3.264-8.221-9.793V94h3.661v13.162c0 4.852 1.856 7.277 5.57 7.277 1.797 0 3.275-.663 4.436-1.988 1.16-1.325 1.741-3.058 1.741-5.2V94h3.684v23zm18.601-19.271c-.644-.494-1.572-.741-2.785-.741-1.572 0-2.886.741-3.942 2.224s-1.583 3.504-1.583 6.064V117h-3.684V94h3.684v4.739h.09c.524-1.617 1.325-2.878 2.403-3.785 1.078-.906 2.283-1.359 3.616-1.359.958 0 1.692.105 2.201.314v3.82zm21.655 8.692h-16.239c.06 2.561.749 4.537 2.066 5.93 1.317 1.393 3.129 2.089 5.436 2.089 2.59 0 4.971-.854 7.143-2.561v3.459c-2.021 1.468-4.694 2.201-8.019 2.201-3.25 0-5.803-1.044-7.659-3.133-1.857-2.089-2.785-5.027-2.785-8.816 0-3.579 1.014-6.495 3.043-8.749 2.029-2.253 4.548-3.38 7.558-3.38s5.338.974 6.985 2.92c1.647 1.947 2.471 4.649 2.471 8.108v1.932zm-3.773-3.122c-.015-2.126-.528-3.781-1.539-4.964-1.011-1.183-2.415-1.774-4.211-1.774-1.737 0-3.212.622-4.425 1.864-1.213 1.243-1.962 2.868-2.246 4.874h12.421zM493.5 55h-1v90h1V55z"/><path fill="#59B4D9" d="M597.026 128.479c-6.343 4.851-13.817 7.213-21.238 7.213-10.53 0-20.943-4.727-27.824-13.727-11.757-15.35-8.855-37.302 6.522-49.064 6.342-4.88 13.824-7.209 21.235-7.209 10.53 0 20.945 4.727 27.824 13.735 11.76 15.345 8.83 37.302-6.519 49.052"/><path fill="#fff" d="M590.595 106.829c2.543 3.316 7.262 3.915 10.56 1.406.172-.132.305-.291.462-.433 3.373 2.376 5.716 3.945 7.036 4.844.391-1.012.661-1.984.938-2.999-1.395-1.038-3.281-2.49-6.007-4.699.895-2.352.612-5.097-1.022-7.241a7.506 7.506 0 0 0-9.712-1.928 314.277 314.277 0 0 1-11.613-10.968c12.834-6.902 21.951-5.891 21.951-5.891-1.522-1.941-3.228-3.641-5.049-5.177-5.412-.836-13.819-.742-23.425 4.367l-.003-.004h-.001a281.196 281.196 0 0 1-9.778-10.799 32.59 32.59 0 0 0-4.638 1.886c2.449 4.008 5.744 8.05 9.457 11.993l.024.024c-3.096 2.165-6.544 5.059-9.724 8.423-.406.433-.797.868-1.179 1.304a10.567 10.567 0 0 0-5.765.395c-3.17-6.84-2.915-12.335-2.414-15.168-1.376 1.442-2.662 2.959-3.77 4.575-.828 3.382-1.063 8.259 1.379 14.136-2.827 3.7-2.96 8.946-.007 12.817.246.321.51.619.783.903-1.29 4.393-1.867 8.63-2.044 12.268l.661 1.255c1.679 2.154 3.788 3.968 5.825 5.612-.252-3.851.02-9.53 2.4-15.924a10.494 10.494 0 0 0 4.877-.793 90.35 90.35 0 0 0 2.836 2.396 58.408 58.408 0 0 0 10.201 6.502 6.964 6.964 0 0 0 1.355 4.926c2.359 3.047 6.728 3.616 9.778 1.287.634-.486 1.136-1.073 1.552-1.703 5.446 1.213 10.204 1.427 13.731 1.427.541 0 3.048-3.411 4.485-5.526-2.148.449-8.518 1.325-17.223-1.176a6.945 6.945 0 0 0-1.257-2.773c-2.211-2.899-6.254-3.526-9.267-1.587-3.026-1.641-6.195-3.698-9.463-6.287a63.449 63.449 0 0 1-1.903-1.566 10.608 10.608 0 0 0 .445-10.572c.401-.4.794-.802 1.22-1.2 3.236-3.023 6.28-5.443 9.128-7.385l-.33-.326.335.318-.003.001c4.37 4.041 9.004 7.871 13.392 11.293-1.162 2.461-.98 5.459.786 7.767z"/><path fill="#55ADD3" d="M702.836 135.691a6.402 6.402 0 0 1-4.565-1.893l-28.544-28.543a6.495 6.495 0 0 1-1.891-4.565c0-1.7.689-3.363 1.891-4.564l28.544-28.543a6.409 6.409 0 0 1 4.565-1.893 6.41 6.41 0 0 1 4.565 1.893l28.54 28.543c1.222 1.215 1.893 2.838 1.893 4.564s-.671 3.349-1.894 4.568l-28.538 28.54a6.413 6.413 0 0 1-4.566 1.893"/><path fill="#fff" d="M721.894 95.221a5.473 5.473 0 0 0-5.474 5.472c0 1.109.335 2.138.903 3l-10.841 10.841a6.282 6.282 0 0 0-.918-.522V86.354c1.634-.946 2.745-2.694 2.745-4.718a5.472 5.472 0 1 0-10.945 0c0 2.024 1.112 3.772 2.744 4.718v27.658a6.26 6.26 0 0 0-.885.494l-10.854-10.854a5.428 5.428 0 0 0 .879-2.958 5.473 5.473 0 1 0-5.471 5.472c.627 0 1.221-.127 1.784-.322l11.41 11.41a6.372 6.372 0 1 0 11.741.045l11.442-11.441a5.41 5.41 0 0 0 1.737.308 5.472 5.472 0 0 0 5.471-5.472 5.47 5.47 0 0 0-5.468-5.473z"/><path opacity=".5" fill="#fff" d="M701.505 82.847l2.497-2.497 20.465 20.464-2.497 2.497z"/><path opacity=".5" fill="#fff" d="M681.116 100.75l20.465-20.465 2.498 2.498-20.465 20.466z"/><path fill="#B8D432" d="M706.566 119.75c0 2.094-1.7 3.793-3.794 3.793-2.096 0-3.793-1.698-3.793-3.793s1.697-3.793 3.793-3.793a3.796 3.796 0 0 1 3.794 3.793m-.688-38.114a3.044 3.044 0 1 1-6.087 0 3.044 3.044 0 0 1 6.087 0m-19.055 19.056a3.044 3.044 0 1 1-6.089 0 3.044 3.044 0 0 1 6.089 0m38.114 0a3.046 3.046 0 0 1-6.089 0 3.044 3.044 0 0 1 6.089 0"/><path opacity=".1" fill="#69c" d="M707.401 67.584a6.409 6.409 0 0 0-4.565-1.893 6.408 6.408 0 0 0-4.564 1.893l-28.544 28.543a6.488 6.488 0 0 0-1.893 4.564c0 1.701.689 3.364 1.893 4.565l16.16 16.161 30.4-44.948-8.887-8.885z"/><path fill="#3999C6" d="M803.512 75.254v50.873c0 5.282 11.823 9.564 26.405 9.564V75.254h-26.405z"/><path fill="#59B4D9" d="M829.555 135.69h.362c14.582 0 26.405-4.28 26.405-9.563V75.254h-26.767v60.436z"/><path fill="#fff" d="M856.322 75.254c0 5.282-11.823 9.563-26.405 9.563s-26.405-4.281-26.405-9.563 11.823-9.563 26.405-9.563 26.405 4.282 26.405 9.563"/><path fill="#7FBA00" d="M850.924 74.703c0 3.487-9.405 6.31-21.006 6.31s-21.008-2.823-21.008-6.31c0-3.485 9.406-6.31 21.008-6.31 11.601 0 21.006 2.825 21.006 6.31"/><path fill="#B8D432" d="M846.523 78.559c2.75-1.066 4.402-2.402 4.402-3.853 0-3.487-9.405-6.311-21.008-6.311-11.601 0-21.007 2.825-21.007 6.311 0 1.451 1.653 2.787 4.402 3.853 3.84-1.491 9.842-2.453 16.604-2.453 6.765.001 12.764.963 16.607 2.453"/><path fill="#fff" d="M846.983 116.504c-1.413 1.178-3.328 1.769-5.815 1.769h-8.298V96.63h7.871c2.478 0 4.377.452 5.683 1.389 1.223.879 1.836 2.109 1.836 3.68 0 1.252-.447 2.317-1.358 3.254-.776.775-1.709 1.31-2.858 1.624v.051c1.543.19 2.802.778 3.74 1.765.878.937 1.33 2.086 1.33 3.415.005 1.979-.716 3.529-2.131 4.696m-20.223-1.275c-2.077 2.031-4.88 3.044-8.378 3.044h-7.661V96.63h7.661c7.685 0 11.528 3.498 11.528 10.538 0 3.365-1.039 6.059-3.15 8.061"/><path fill="#3999C6" d="M817.982 100.58h-2.401v13.741h2.429c2.134 0 3.788-.668 5.012-1.948 1.172-1.281 1.765-2.988 1.765-5.148 0-2.027-.593-3.625-1.738-4.808-1.201-1.223-2.882-1.837-5.067-1.837"/><path fill="#59B4D9" d="M842.233 104.613c.586-.51.879-1.178.879-2.006 0-1.605-1.172-2.403-3.55-2.403h-1.834v5.128h2.16c.987 0 1.787-.247 2.345-.719m.802 5.09c-.642-.478-1.516-.747-2.644-.747h-2.667v5.708h2.641c1.123 0 2.027-.266 2.695-.8.613-.535.931-1.224.931-2.134.006-.854-.314-1.548-.956-2.027"/><path fill="#A0A1A2" d="M922 127.851c0 1.4.98 2.66 2.66 2.66h64.68c1.4 0 2.66-.98 2.66-2.66v-46.34h-70v46.34z"/><path fill="#7A7A7A" d="M989.34 70.871h-64.68c-1.68 0-2.66 1.26-2.66 2.66v7.98h70v-7.98c0-1.4-.98-2.66-2.66-2.66"/><path fill="#fff" d="M948.32 86.131h17.64v10.64h-17.64z"/><path fill="#FCD116" d="M948.32 100.551h17.64v10.64h-17.64zm21 0h17.64v10.64h-17.64z"/><path fill="#fff" d="M969.32 86.131h17.64v10.64h-17.64zm-42 0h17.64v10.64h-17.64zm0 14.42h17.64v10.64h-17.64z"/><path fill="#FCD116" d="M927.32 114.831h17.64v10.64h-17.64zm21 0h17.64v10.64h-17.64zm21 0h17.64v10.64h-17.64z"/><path opacity=".2" fill="#fff" d="M924.66 70.871c-1.26 0-2.66 1.26-2.66 2.66v54.32c0 1.4 1.4 2.66 2.66 2.66h2.94l55.44-59.64h-58.38z"/></svg>