<svg xmlns="http://www.w3.org/2000/svg" viewBox="0 0 1140 360"><path fill="#68217A" d="M0 0h1140v360H0V0z"/><path fill="#E44D26" d="M625.457 132.801l-5.803-65.084h63.762l-5.809 65.074-26.111 7.239z"/><path fill="#F16529" d="M651.535 134.497l21.099-5.849 4.964-55.609h-26.063z"/><path fill="#EBEBEB" d="M651.535 97.178h-10.562l-.73-8.174h11.292v-7.983h-20.016l.191 2.142 1.962 21.997h17.863zm0 20.731l-.035.009-8.89-2.401-.568-6.366h-8.013l1.118 12.534 16.352 4.539.036-.01z"/><path d="M625.587 50.03h4.057v4.008h3.711V50.03h4.057v12.137h-4.057v-4.064h-3.711v4.064h-4.057V50.03zm17.158 4.025h-3.571V50.03h11.201v4.025h-3.573v8.112h-4.057v-8.112zm9.407-4.025h4.23l2.602 4.264 2.599-4.264h4.231v12.137h-4.04v-6.016l-2.791 4.315h-.07l-2.793-4.315v6.016h-3.969V50.03zm15.682 0h4.058v8.125h5.705v4.012h-9.762V50.03z"/><path fill="#fff" d="M651.508 97.178v7.982h9.829l-.927 10.352-8.902 2.403v8.305l16.364-4.535.12-1.349 1.876-21.015.194-2.143h-2.151zm0-16.157v7.983h19.281l.16-1.795.364-4.046.19-2.142z"/><path d="M777.75 55.803v-4.147h-9.888v12.121h9.888v-4.146h-5.742v-3.828zm14.035-4.147h-9.889v4.257l4.127 3.718h-4.127v4.146h9.889V59.74l-3.751-3.937h3.751zm14.353 0h-9.888v4.257l3.967 3.718h-3.967v4.146h9.888V59.74l-3.91-3.937h3.91z"/><path fill="#0071BC" d="M760.908 134.424l-5.805-65.115h63.794l-5.812 65.104-26.124 7.243z"/><path fill="#29ABE2" d="M787.054 136.117l21.083-5.801 4.94-55.584h-26.023z"/><path fill="#B3B3B3" d="M768.392 98.655l.699 7.974 17.963-7.974v-7.987z"/><path fill="#E6E6E6" d="M806.948 82.142l-19.894 8.526v7.987l19.208-8.539zm-19.894 37.377l-.062.01-8.908-2.393-.582-6.36h-8.017l1.118 12.531 16.387 4.537.064-.015z"/><path fill="#fff" d="M787.054 98.655v7.974h9.753l-.887 10.426-8.866 2.471v8.309l16.332-4.537 2.15-24.643z"/><path fill="#E6E6E6" d="M787.054 98.655h-18.662l.699 7.974h17.963zm0-8.539v-7.974h-20.08l.708 7.974z"/><path fill="#fff" d="M787.054 82.142v7.974h19.208l.686-7.974z"/><path fill="#F0DB4F" d="M882.25 64.25h70v70h-70z"/><path fill="#353630" d="M929.272 118.938c1.41 2.302 3.244 3.994 6.489 3.994 2.726 0 4.467-1.362 4.467-3.244 0-2.256-1.789-3.054-4.789-4.367l-1.644-.706c-4.747-2.022-7.9-4.556-7.9-9.911 0-4.933 3.759-8.689 9.633-8.689 4.182 0 7.189 1.456 9.356 5.267l-5.122 3.289c-1.128-2.022-2.344-2.819-4.233-2.819-1.927 0-3.148 1.222-3.148 2.819 0 1.973 1.222 2.772 4.044 3.994l1.644.704c5.589 2.397 8.744 4.84 8.744 10.333 0 5.922-4.652 9.167-10.9 9.167-6.109 0-10.056-2.911-11.987-6.727l5.346-3.104zm-23.236.57c1.033 1.833 1.973 3.383 4.233 3.383 2.161 0 3.524-.846 3.524-4.133V96.391h6.578v22.456c0 6.811-3.993 9.911-9.822 9.911-5.267 0-8.317-2.726-9.868-6.008l5.355-3.242z"/><path d="M296.374 83.453c0 .708-.246 1.296-.737 1.763a2.453 2.453 0 0 1-1.752.704c-.693 0-1.277-.227-1.752-.681-.477-.452-.715-1.048-.715-1.786 0-.66.234-1.234.703-1.717.468-.484 1.057-.727 1.765-.727.706 0 1.299.239 1.775.715.475.477.713 1.054.713 1.729zm177.29 0c0 .708-.245 1.296-.737 1.763a2.453 2.453 0 0 1-1.752.704c-.693 0-1.277-.227-1.752-.681-.477-.452-.715-1.048-.715-1.786 0-.66.234-1.234.703-1.717.468-.484 1.057-.727 1.765-.727.706 0 1.299.239 1.775.715.475.477.713 1.054.713 1.729zm-184.79-1.697l-12.216 33.052h-4.241l-12.008-33.052h4.31l9.842 28.212h.092l10.072-28.212h4.149zm6.822 33.052h-3.78V91.206h3.78v23.602zm19.173-6.316c0 2.044-.788 3.703-2.362 4.978-1.575 1.276-3.669 1.913-6.281 1.913-2.228 0-4.18-.476-5.854-1.429v-4.056c1.859 1.506 3.903 2.258 6.131 2.258 2.996 0 4.494-1.098 4.494-3.296 0-.891-.292-1.617-.876-2.178-.584-.561-1.913-1.317-3.988-2.27-2.09-.891-3.565-1.848-4.425-2.87-.861-1.022-1.291-2.378-1.291-4.068 0-1.951.784-3.58 2.351-4.886s3.557-1.959 5.97-1.959c1.859 0 3.542.369 5.048 1.106v3.803c-1.537-1.121-3.319-1.682-5.347-1.682-1.244 0-2.247.308-3.008.922-.761.614-1.141 1.406-1.141 2.374 0 1.045.292 1.848.876 2.408.584.561 1.79 1.226 3.619 1.994 2.243.953 3.818 1.951 4.725 2.996.906 1.046 1.359 2.36 1.359 3.942zm23.041 6.316h-3.78v-3.734h-.092c-1.567 2.873-3.987 4.31-7.26 4.31-5.639 0-8.459-3.357-8.459-10.072V91.206h3.78v13.507c0 4.964 1.905 7.444 5.716 7.444 1.875 0 3.396-.68 4.564-2.04 1.168-1.36 1.752-3.13 1.752-5.313V91.206h3.78v23.602zm22.716 0h-3.78v-3.688h-.092c-1.644 2.843-4.064 4.264-7.26 4.264-2.274 0-4.095-.618-5.462-1.855-1.368-1.237-2.051-2.9-2.051-4.99 0-4.394 2.597-6.961 7.791-7.698l7.076-.991c0-3.995-1.621-5.993-4.863-5.993-2.843 0-5.409.96-7.698 2.881v-3.872c.692-.522 1.875-1.026 3.549-1.51 1.675-.484 3.165-.726 4.472-.726 5.547 0 8.321 2.943 8.321 8.828v15.35zm-3.78-11.94l-5.716.807c-1.952.276-3.319.741-4.103 1.394-.784.653-1.176 1.71-1.176 3.17 0 1.183.422 2.132 1.268 2.846.845.714 1.928 1.071 3.25 1.071 1.875 0 3.423-.66 4.644-1.982 1.222-1.321 1.832-2.973 1.832-4.956v-2.35zm13.13 11.94h-3.78V79.866h3.78v34.942zm29.875-8.344c0 2.781-.983 4.964-2.95 6.546-1.967 1.583-4.641 2.374-8.021 2.374-1.23 0-2.616-.204-4.16-.611-1.544-.407-2.639-.833-3.284-1.279v-4.587c.937.845 2.17 1.552 3.699 2.121s2.954.853 4.276.853c4.241 0 6.361-1.652 6.361-4.956 0-1.383-.453-2.57-1.36-3.561-.907-.991-2.766-2.294-5.578-3.907-2.719-1.536-4.625-2.996-5.716-4.379-1.091-1.383-1.637-3.065-1.637-5.048 0-2.612.976-4.736 2.927-6.373 1.951-1.637 4.472-2.455 7.56-2.455 2.965 0 5.132.392 6.5 1.176v4.333c-1.721-1.352-3.957-2.028-6.707-2.028-1.829 0-3.323.457-4.483 1.371-1.16.914-1.74 2.124-1.74 3.63 0 1.091.173 1.967.519 2.627.346.661.93 1.314 1.752 1.959.822.646 2.209 1.514 4.16 2.604 2.919 1.629 4.963 3.166 6.131 4.61 1.167 1.446 1.751 3.105 1.751 4.98zm15.151 8.113c-.907.507-2.09.761-3.549.761-4.118 0-6.177-2.32-6.177-6.961V94.41h-4.057v-3.204h4.057v-5.762l3.78-1.221v6.983h5.946v3.204h-5.946v13.322c0 1.583.269 2.709.807 3.377.538.668 1.437 1.003 2.697 1.003.937 0 1.752-.254 2.443-.761v3.226zm22.793.231h-3.78v-3.734h-.092c-1.567 2.873-3.987 4.31-7.26 4.31-5.639 0-8.459-3.357-8.459-10.072V91.206h3.78v13.507c0 4.964 1.905 7.444 5.716 7.444 1.874 0 3.396-.68 4.563-2.04 1.168-1.36 1.752-3.13 1.752-5.313V91.206h3.78v23.602zm25.871 0h-3.78v-4.011h-.092c-1.752 3.058-4.456 4.587-8.113 4.587-2.981 0-5.355-1.071-7.122-3.215-1.767-2.143-2.651-5.005-2.651-8.586 0-3.902.98-7.037 2.939-9.404 1.959-2.366 4.583-3.549 7.871-3.549 3.227 0 5.585 1.276 7.076 3.826h.092v-14.59h3.78v34.942zm-3.78-10.672v-3.48c0-1.951-.65-3.572-1.948-4.863-1.299-1.291-2.878-1.936-4.737-1.936-2.274 0-4.079.841-5.416 2.524s-2.005 4.015-2.005 6.995c0 2.705.63 4.844 1.89 6.419 1.26 1.575 2.958 2.363 5.094 2.363 2.074 0 3.78-.752 5.117-2.258 1.337-1.508 2.005-3.428 2.005-5.764zm13.282 10.672h-3.78V91.206h3.78v23.602zm27.536-11.893c0 3.749-1.064 6.765-3.192 9.047-2.128 2.282-4.982 3.423-8.563 3.423-3.488 0-6.273-1.11-8.355-3.33-2.082-2.22-3.123-5.143-3.123-8.77 0-3.903 1.068-6.987 3.204-9.254 2.135-2.266 5.078-3.4 8.828-3.4 3.503 0 6.246 1.095 8.228 3.285 1.982 2.188 2.973 5.188 2.973 8.999zm-3.872.138c0-2.965-.657-5.24-1.971-6.823-1.314-1.582-3.192-2.374-5.635-2.374-2.428 0-4.349.811-5.762 2.432-1.414 1.621-2.12 3.906-2.12 6.857 0 2.828.71 5.036 2.132 6.626 1.421 1.59 3.338 2.385 5.751 2.385 2.458 0 4.341-.784 5.647-2.351 1.304-1.566 1.958-3.817 1.958-6.752zm-266.807-32.32l-21.866 21.866-13.946-10.847-5.509 2.754v27.547l5.509 2.755 13.946-10.848 21.866 21.866 13.774-5.509V76.242l-13.774-5.509zm-35.812 35.811V90.016l8.265 8.265-8.265 8.263zm21.251-8.263l14.561-11.326v22.651l-14.561-11.325zM548.5 61h1v74h-1z" fill="#fff"/></svg>